<svg width="10" height="11" viewBox="0 0 10 11" fill="none" xmlns="http://www.w3.org/2000/svg">
<path d="M4.55717 1.17527C4.67667 0.806233 5.19877 0.806233 5.31827 1.17527L6.19052 3.86912C6.24395 4.03412 6.39763 4.1459 6.57107 4.1459H9.39669C9.78384 4.1459 9.94517 4.64104 9.63233 4.86912L7.34398 6.53748C7.20427 6.63933 7.14582 6.81942 7.19908 6.98391L8.07259 9.68164C8.19199 10.0504 7.76961 10.3564 7.45639 10.1281L5.17337 8.4636C5.03295 8.36122 4.84249 8.36122 4.70207 8.4636L2.41905 10.1281C2.10583 10.3564 1.68345 10.0504 1.80285 9.68163L2.67636 6.98391C2.72962 6.81942 2.67117 6.63933 2.53146 6.53748L0.243106 4.86912C-0.0697321 4.64104 0.0916004 4.1459 0.478754 4.1459H3.30437C3.47781 4.1459 3.63149 4.03412 3.68492 3.86912L4.55717 1.17527Z" fill="#231F20"/>
</svg>
