<svg width="214" height="130" viewBox="0 0 214 130" fill="none" xmlns="http://www.w3.org/2000/svg">
<path d="M19.3872 116.005C16.5235 114.638 13.6053 113.033 10.7979 111.175C9.40608 110.234 7.98218 109.297 6.77365 108.122C6.1678 107.539 5.60871 106.907 5.13417 106.22C4.65963 105.533 4.2686 104.79 4.02566 104.002C3.77957 103.216 3.69103 102.386 3.78628 101.578C3.85737 100.768 4.14218 99.9867 4.58029 99.3184C5.01998 98.649 5.62453 98.1027 6.29941 97.6953C6.97587 97.2869 7.71898 97.0085 8.47414 96.84C9.9871 96.5035 11.5404 96.571 12.9298 96.98C14.3259 97.389 15.5472 98.1128 16.6419 98.876C16.7485 98.9498 16.8561 99.0251 16.9606 99.1025L17.3234 99.3674L17.7812 99.7092L18.019 99.8901L18.1387 99.9799L18.1981 100.024C18.2138 100.041 18.2007 100.018 18.1986 100.008L18.1849 99.9739L17.9593 99.4196L17.847 99.1432L17.7446 98.8783C17.6496 98.6379 17.5652 98.3928 17.4791 98.1487C17.1448 97.1703 16.8752 96.1689 16.72 95.1475C16.4007 93.1152 16.5188 90.9823 17.2603 89.0326C17.9896 87.0887 19.4026 85.367 21.2718 84.3354C22.2082 83.8274 23.2512 83.5089 24.324 83.3746C25.399 83.2639 26.5122 83.4111 27.534 83.8239C28.5248 84.2144 29.4184 84.8585 30.1045 85.6802C30.7948 86.5015 31.2777 87.4801 31.6083 88.4973C31.9399 89.5161 32.1239 90.5771 32.2229 91.6408C32.3214 92.7071 32.3306 93.7765 32.3209 94.845C32.3085 95.913 32.283 96.9785 32.2875 98.0443C32.2893 99.1096 32.309 100.174 32.3482 101.237C32.4254 103.362 32.5808 105.477 32.8155 107.57C33.0911 110.024 33.4466 112.427 33.8818 114.786C33.9899 115.376 34.1053 115.963 34.2254 116.548C34.2867 116.84 34.347 117.131 34.4084 117.423C34.4367 117.568 34.4766 117.716 34.496 117.857C34.5112 117.931 34.5038 117.988 34.5395 118.096L34.6078 118.197C34.6251 118.227 34.6498 118.253 34.6624 118.285C34.9216 118.781 34.8385 119.434 34.4903 119.865C34.3159 120.081 34.0701 120.233 33.7991 120.278C33.5271 120.329 33.2535 120.265 32.9616 120.198C28.3491 119.187 23.8876 117.751 19.5106 115.899" stroke="#BDBCBC" stroke-width="2" stroke-miterlimit="10"/>
<path d="M209.574 18.7782C210.002 19.1163 210.416 19.482 210.784 19.8995C210.97 20.1059 211.14 20.3293 211.295 20.5637C211.452 20.7975 211.586 21.049 211.695 21.3128C211.805 21.5756 211.889 21.8533 211.934 22.1396L211.952 22.2464C211.956 22.2816 211.959 22.3185 211.963 22.3549L211.981 22.5721C211.978 22.7183 211.986 22.8642 211.965 23.0101C211.956 23.1564 211.923 23.3002 211.895 23.4446C211.854 23.586 211.821 23.7294 211.761 23.8658C211.713 24.0054 211.642 24.1346 211.578 24.2679C211.502 24.3935 211.431 24.5238 211.342 24.6415C211.261 24.765 211.163 24.8742 211.069 24.9876C210.969 25.0945 210.87 25.2033 210.76 25.2999C210.545 25.4991 210.312 25.678 210.063 25.8308C209.941 25.9116 209.811 25.9773 209.684 26.0483C209.552 26.11 209.423 26.1777 209.287 26.2301C209.021 26.3433 208.744 26.4323 208.462 26.5009C207.335 26.7805 206.168 26.7343 205.021 26.6451C204.445 26.6023 203.865 26.5577 203.282 26.5775C203.209 26.5793 203.136 26.5835 203.063 26.5878C202.983 26.5942 202.892 26.6006 202.801 26.6099L202.733 26.6174L202.698 26.6203L202.681 26.6218C202.681 26.6218 202.667 26.6221 202.674 26.6275L202.766 26.728L202.86 26.8288C202.874 26.8448 202.892 26.8647 202.905 26.8799L202.94 26.9216C203.128 27.1415 203.298 27.3782 203.448 27.6278C204.042 28.6278 204.331 29.8374 204.201 31.0247C204.137 31.6165 203.966 32.2007 203.682 32.7244C203.4 33.2475 203.016 33.7168 202.554 34.0809L202.38 34.2165C202.321 34.2598 202.258 34.2983 202.197 34.3386C202.078 34.4238 201.946 34.4881 201.821 34.561C201.56 34.6889 201.294 34.8071 201.015 34.883L200.912 34.9144L200.807 34.9387L200.596 34.9874C200.454 35.0073 200.314 35.0393 200.171 35.0481C199.887 35.0833 199.6 35.0765 199.318 35.0617C199.036 35.0358 198.754 34.9954 198.481 34.9224C198.412 34.9085 198.345 34.8853 198.277 34.8647L198.13 34.8194L198.052 34.7956L198.032 34.7897C198.024 34.7863 198.019 34.7842 198.02 34.7958L198.017 34.8378L198.002 35.0076C197.999 35.0399 197.997 35.0553 197.995 35.0728L197.987 35.1268C197.979 35.2003 197.966 35.2717 197.955 35.3439C197.852 35.9192 197.641 36.4758 197.333 36.9695C196.728 37.9689 195.697 38.6442 194.604 38.8607C193.512 39.0895 192.374 38.9547 191.381 38.5322C190.383 38.11 189.544 37.3851 188.898 36.5346C188.249 35.6818 187.781 34.707 187.462 33.7005C187.14 32.6927 186.951 31.6572 186.822 30.6318C186.559 28.5843 186.511 26.5678 186.081 24.7123C185.996 24.3522 185.901 23.9966 185.787 23.6452C185.67 23.2965 185.54 22.9525 185.384 22.6199C185.227 22.289 185.058 21.9647 184.856 21.66C184.817 21.6104 184.797 21.514 184.717 21.5611L184.563 21.5963C184.475 21.6176 184.385 21.6361 184.297 21.6589L184.034 21.7351L183.903 21.7734L183.774 21.8187C183.082 22.0545 182.42 22.3784 181.793 22.7613C181.164 23.1413 180.566 23.5711 179.987 24.0237C178.827 24.928 177.732 25.9116 176.554 26.7838C175.966 27.2203 175.362 27.6339 174.726 27.9896C174.091 28.3457 173.428 28.6533 172.738 28.8687C172.395 28.9834 172.043 29.0647 171.689 29.1354C171.335 29.1996 170.977 29.2427 170.618 29.259C169.902 29.2853 169.179 29.2134 168.496 28.9991C167.809 28.7948 167.166 28.4499 166.6 28.0047C166.32 27.7765 166.067 27.516 165.838 27.2324C165.61 26.9478 165.422 26.6313 165.263 26.2985C165.102 25.9663 164.992 25.6084 164.921 25.2415C164.881 25.0587 164.867 24.8707 164.848 24.6834C164.846 24.4953 164.837 24.3058 164.857 24.1168C164.907 23.3598 165.173 22.6142 165.593 21.9724C165.697 21.8128 165.814 21.6571 165.937 21.5137C165.942 21.5046 165.958 21.494 165.954 21.4873L165.924 21.471L165.863 21.4396L165.742 21.3753C165.659 21.3347 165.583 21.2807 165.503 21.2336C165.19 21.0363 164.898 20.803 164.634 20.5393C164.107 20.0098 163.699 19.3468 163.468 18.6111C163.355 18.2565 163.295 17.8821 163.276 17.5061C163.254 17.1304 163.285 16.7491 163.361 16.3756C163.511 15.6278 163.868 14.9253 164.351 14.3396C165.324 13.165 166.778 12.4403 168.253 12.3536L168.442 12.3469C168.589 12.3102 168.363 12.2459 168.321 12.1986C168.205 12.0596 168.08 11.9248 167.953 11.7948C167.698 11.5339 167.428 11.2875 167.154 11.0455C166.606 10.5631 166.042 10.0924 165.549 9.54258C165.053 8.99871 164.619 8.39042 164.299 7.71534C163.983 7.04089 163.798 6.28993 163.814 5.52933C163.836 4.77422 164.093 4.01261 164.559 3.41002C164.791 3.10863 165.072 2.84815 165.386 2.6419C165.699 2.4327 166.047 2.28912 166.403 2.18966C167.117 1.98757 167.859 1.95244 168.585 2.00366C169.313 2.05678 170.03 2.18822 170.739 2.34732C173.574 2.98373 176.232 4.27466 178.5 6.04801C180.455 7.56509 182.114 9.42266 183.408 11.4939C184.056 12.5295 184.612 13.6199 185.068 14.7483L185.234 15.1742C185.288 15.3171 185.346 15.4566 185.393 15.6022C185.487 15.8918 185.591 16.1779 185.678 16.4696C185.76 16.7628 185.846 17.054 185.924 17.348C185.998 17.6663 186.072 17.9831 186.146 18.3004L186.537 18.0544C186.648 17.9831 186.763 17.9183 186.876 17.85C186.989 17.7817 187.104 17.7158 187.219 17.652C187.334 17.5886 187.448 17.5207 187.564 17.4603C188.027 17.2081 188.499 16.98 188.977 16.7677C189.933 16.3407 190.917 15.995 191.915 15.7184C192.415 15.5822 192.918 15.4634 193.424 15.3632C193.932 15.2776 194.437 15.1759 194.949 15.1251C195.458 15.051 195.97 15.0266 196.48 14.9876C196.735 14.9763 196.991 14.9751 197.247 14.9677C197.375 14.9653 197.503 14.9603 197.63 14.96L198.012 14.9708C200.055 15.0105 202.081 15.3591 204.018 15.9892L204.739 16.2414C204.86 16.2808 204.976 16.3328 205.096 16.38L205.449 16.525L205.803 16.67C205.92 16.721 206.034 16.7788 206.15 16.8329C206.38 16.9438 206.613 17.0494 206.841 17.1656C207.747 17.6399 208.619 18.1844 209.449 18.7956" stroke="#BDBCBC" stroke-width="2" stroke-miterlimit="10" stroke-linecap="round"/>
</svg>
