<svg width="141" height="153" viewBox="0 0 141 153" fill="none" xmlns="http://www.w3.org/2000/svg">
<g clip-path="url(#clip0_115_220)">
<path d="M31.8463 15.3439C31.76 14.8395 31.4626 14.3406 31.2603 13.9805C31.1026 13.7006 30.9398 13.4324 30.7262 13.1656C30.52 12.9076 30.4611 12.5642 30.3015 12.2831C30.1147 11.9535 30.0283 11.6006 29.7667 11.3267" stroke="#BDBCBC" stroke-width="1.5" stroke-miterlimit="10"/>
<path d="M12.8583 12.7661C13.3409 12.5327 13.7636 12.0943 14.072 11.7913C14.3117 11.5555 14.5375 11.3165 14.7502 11.0301C14.956 10.7532 15.2842 10.5935 15.524 10.3557C15.806 10.0765 16.1368 9.88685 16.3437 9.55182" stroke="#BDBCBC" stroke-width="1.5" stroke-miterlimit="10"/>
<path d="M45.4404 10.5734C44.2289 10.879 42.9686 11.2446 41.705 11.659C40.4414 12.0735 39.1689 12.5203 37.9256 12.9797C35.4385 13.8934 33.0595 14.8227 31.0687 15.5554C29.5196 16.1273 27.9854 16.6805 26.4165 17.1905C26.0267 17.3247 25.6295 17.4402 25.2333 17.5659C24.838 17.6936 24.4359 17.8066 24.0326 17.9226C23.8317 17.9832 23.6275 18.0344 23.4269 18.103C23.2296 18.1579 22.9956 18.1573 22.8214 18.0296C22.7451 17.9526 22.6415 17.9214 22.5454 17.8737C22.448 17.829 22.3505 17.7853 22.2531 17.7406C22.0583 17.6521 21.8625 17.5626 21.6657 17.473C20.9049 17.1269 20.145 16.7698 19.3867 16.4069C19.0078 16.2229 18.6288 16.0389 18.2499 15.855C17.8757 15.6624 17.502 15.4658 17.1315 15.2656C15.6536 14.4568 14.2191 13.5805 12.7984 12.7206C11.1325 11.7105 9.556 10.6863 7.98883 9.68297C6.42056 8.68053 4.86204 7.694 3.22327 6.77869" stroke="#BDBCBC" stroke-width="1.5" stroke-miterlimit="10"/>
<path d="M6.5996 20.1487C5.90013 17.2457 5.04136 14.2303 4.03373 11.2139C3.78205 10.4601 3.52124 9.70642 3.2512 8.95397C3.11408 8.57856 2.97797 8.20325 2.84094 7.82685C2.80378 7.73123 2.77496 7.64439 2.76713 7.54936C2.7582 7.45523 2.76856 7.3608 2.79775 7.27104C2.85606 7.09252 2.99002 6.94075 3.15443 6.84585C3.16519 6.83877 3.17468 6.83459 3.18635 6.82859L3.23305 6.80461C3.24337 6.80251 3.24516 6.79364 3.24687 6.78576L3.25492 6.76339C3.26018 6.7498 3.26604 6.72924 3.27085 6.72063C3.28888 6.67706 3.30975 6.63574 3.33648 6.59695C3.38792 6.51919 3.45741 6.45507 3.53747 6.40894C3.61837 6.36488 3.71066 6.34091 3.8043 6.33612C3.85108 6.33422 3.89842 6.3374 3.94559 6.34256L4.09452 6.36573C4.49131 6.42783 4.88937 6.48702 5.28283 6.56387C5.67808 6.63185 6.06948 6.72057 6.46058 6.80123C6.84962 6.89375 7.23909 6.98129 7.62406 7.0855C9.16761 7.48358 10.6663 7.98811 12.1504 8.4512C12.8931 8.6813 13.631 8.90797 14.3671 9.10938C14.7339 9.21299 15.1027 9.30573 15.4681 9.40219C15.6516 9.44648 15.8341 9.49068 16.0167 9.53488L16.3054 9.6045L16.359 9.61726L16.3997 9.5807L16.4636 9.52311L16.5669 9.43086C17.6699 8.44823 18.8127 7.56547 19.9111 6.71493C21.0132 5.86872 22.0851 5.06602 23.1039 4.30179C23.4992 4.00245 23.8942 3.70509 24.2893 3.40674L24.5838 3.1818C24.6763 3.10966 24.7781 3.05743 24.8908 3.03224C25.1141 2.98168 25.36 3.04351 25.5266 3.19872C25.5473 3.2176 25.5656 3.23929 25.5851 3.26007L25.6358 3.32778L25.678 3.40175L25.7193 3.48468L25.8836 3.81532L26.2094 4.47633L26.8597 5.79926C27.2937 6.68058 27.7298 7.56108 28.1742 8.4383C28.6197 9.31562 29.0703 10.1924 29.5545 11.0551L29.6467 11.2157L29.695 11.3003C29.7174 11.3334 29.7278 11.3885 29.7792 11.3679L30.1668 11.3389C30.4148 11.3186 30.6643 11.3045 30.9128 11.2792C31.1611 11.255 31.4095 11.2307 31.6589 11.2065C31.9076 11.1783 32.1564 11.149 32.4051 11.1208C33.3996 11.0008 34.3953 10.8547 35.3942 10.6959C37.3927 10.3814 39.4073 10.0222 41.4808 9.81162C41.7306 9.78247 41.9817 9.76146 42.2328 9.74145C42.4838 9.72144 42.7352 9.69645 42.9876 9.68458L43.7442 9.64191L44.502 9.62043L44.6919 9.6151C44.755 9.61263 44.8254 9.61884 44.8897 9.63556C45.0193 9.67207 45.1342 9.74745 45.223 9.8436C45.3107 9.94065 45.3795 10.0561 45.4172 10.1809C45.4359 10.2438 45.4485 10.3081 45.4518 10.3746C45.4539 10.4079 45.452 10.4409 45.4491 10.4737C45.4475 10.4917 45.4436 10.5014 45.4457 10.5126C45.448 10.5208 45.4537 10.5364 45.4573 10.5528C45.4917 10.6802 45.4898 10.8166 45.4553 10.943C45.4226 11.0726 45.3451 11.1822 45.2811 11.2869L44.8832 11.9273C43.8178 13.6328 42.749 15.342 41.6824 17.0495C40.6119 18.7556 39.5435 20.4608 38.4776 22.1603C38.2112 22.5854 37.9457 23.0106 37.6803 23.4348C37.6154 23.5385 37.5293 23.6303 37.4219 23.688C37.3124 23.7456 37.195 23.7674 37.0635 23.7528C37.0449 23.7461 37.0303 23.7619 37.0134 23.7694C36.9986 23.7772 36.9859 23.7831 36.9721 23.7899C36.9446 23.8025 36.9154 23.812 36.8863 23.8205C36.8281 23.8374 36.7666 23.845 36.7058 23.8457C36.5842 23.845 36.4574 23.8238 36.3327 23.8128C35.3316 23.7094 34.3325 23.6073 33.3364 23.5044C28.6624 23.0309 24.1543 22.55 19.6893 22.0849C17.456 21.8569 15.2347 21.6298 13.0083 21.4024C11.8953 21.2932 10.7801 21.1848 9.66304 21.0752C9.10436 21.0219 8.5446 20.9695 7.98392 20.9161L7.56281 20.8769C7.4224 20.8605 7.27941 20.862 7.15086 20.8145C7.01994 20.7708 6.90597 20.6845 6.82562 20.573C6.74737 20.4608 6.69955 20.3251 6.69047 20.1868" stroke="#BDBCBC" stroke-width="1.5" stroke-miterlimit="10"/>
</g>
<g clip-path="url(#clip1_115_220)">
<path d="M126.051 140.611C126.722 140.758 127.431 140.764 128.117 140.625C128.802 140.487 129.467 140.218 130.065 139.835C130.662 139.451 131.185 138.942 131.59 138.351C131.998 137.76 132.289 137.087 132.463 136.386C132.637 135.685 132.697 134.954 132.649 134.231C132.623 133.87 132.575 133.509 132.494 133.156L132.429 132.891C132.406 132.804 132.391 132.714 132.359 132.629L132.275 132.37L132.232 132.241L132.212 132.177L132.186 132.114C131.93 131.436 131.574 130.798 131.147 130.217C130.719 129.634 130.221 129.108 129.68 128.638C129.138 128.168 128.551 127.755 127.939 127.395C127.787 127.304 127.63 127.222 127.476 127.135C127.321 127.049 127.161 126.975 127.004 126.895L126.925 126.855L126.879 126.832L126.855 126.821C126.849 126.82 126.851 126.816 126.855 126.812L126.862 126.801L126.96 126.653C127.008 126.58 127.059 126.508 127.102 126.432C127.147 126.356 127.193 126.281 127.236 126.205L127.361 125.974C128.005 124.732 128.267 123.33 128.158 121.999C128.051 120.666 127.574 119.405 126.826 118.4C126.082 117.391 125.075 116.657 124.03 116.189C123.786 116.077 123.534 115.984 123.28 115.898C123.024 115.818 122.767 115.744 122.504 115.692C121.98 115.582 121.444 115.526 120.91 115.534L120.709 115.539L120.51 115.552C120.376 115.558 120.244 115.58 120.111 115.594C119.847 115.634 119.583 115.682 119.326 115.754C118.808 115.889 118.309 116.093 117.837 116.346C117.365 116.601 116.924 116.911 116.518 117.263C116.115 117.619 115.744 118.013 115.424 118.449C115.26 118.663 115.115 118.892 114.975 119.123C114.91 119.242 114.838 119.357 114.779 119.479L114.687 119.661L114.602 119.845C114.543 119.968 114.497 120.096 114.443 120.221C114.399 120.349 114.346 120.475 114.308 120.605L114.247 120.8L114.193 120.997C114.175 121.063 114.158 121.129 114.144 121.196L114.092 121.428L113.837 121.272C113.76 121.227 113.681 121.187 113.603 121.145C113.445 121.064 113.284 120.987 113.118 120.92C112.788 120.785 112.445 120.679 112.094 120.601C111.391 120.445 110.658 120.411 109.932 120.489C108.478 120.631 107.053 121.3 106.004 122.384C105.762 122.634 105.537 122.901 105.336 123.186C105.136 123.472 104.959 123.772 104.803 124.085C104.646 124.396 104.518 124.723 104.409 125.055C104.301 125.386 104.215 125.727 104.156 126.071C104.096 126.416 104.056 126.764 104.044 127.114C104.032 127.464 104.042 127.814 104.077 128.162C104.15 128.858 104.32 129.544 104.588 130.19C105.12 131.486 106.018 132.617 107.118 133.472C107.392 133.688 107.681 133.884 107.978 134.065C108.276 134.245 108.583 134.411 108.9 134.554C109.217 134.697 109.539 134.826 109.871 134.932C109.953 134.96 110.038 134.983 110.12 135.008C110.203 135.034 110.287 135.056 110.371 135.077C110.455 135.097 110.539 135.122 110.624 135.139L110.89 135.197C110.244 136.819 109.6 138.436 108.96 140.043C108.861 140.29 108.763 140.536 108.664 140.782C108.615 140.905 108.566 141.027 108.517 141.149C108.505 141.18 108.497 141.211 108.487 141.241C108.478 141.271 108.475 141.304 108.47 141.335C108.469 141.367 108.467 141.399 108.47 141.43C108.475 141.462 108.475 141.494 108.487 141.524C108.52 141.646 108.601 141.756 108.712 141.818C108.765 141.852 108.828 141.868 108.89 141.88C108.952 141.885 109.017 141.885 109.079 141.869C109.202 141.84 109.314 141.766 109.432 141.71C109.548 141.65 109.665 141.59 109.78 141.529C110.705 141.042 111.605 140.525 112.479 139.977C113.354 139.431 114.203 138.855 115.03 138.256C115.236 138.105 115.442 137.955 115.645 137.801L115.798 137.686L115.896 137.612L115.923 137.592L115.937 137.581C115.939 137.584 115.941 137.591 115.943 137.595L115.967 137.655L115.992 137.716L116.014 137.758L116.058 137.843L116.145 138.012C116.378 138.463 116.614 138.911 116.867 139.349C117.37 140.224 117.948 141.063 118.687 141.746C119.055 142.087 119.457 142.392 119.89 142.645C120.323 142.897 120.787 143.098 121.273 143.221C121.758 143.344 122.265 143.389 122.764 143.337C123.264 143.293 123.751 143.132 124.196 142.896C124.415 142.773 124.631 142.638 124.823 142.474L124.897 142.414C124.922 142.394 124.944 142.372 124.967 142.35L125.106 142.221L125.236 142.082L125.3 142.012L125.359 141.938C125.523 141.744 125.654 141.525 125.771 141.3L125.85 141.127C125.879 141.07 125.895 141.008 125.918 140.949C125.965 140.83 125.991 140.705 126.024 140.582" stroke="#BDBCBC" stroke-width="1.5" stroke-miterlimit="10" stroke-linecap="round"/>
</g>
<defs>
<clipPath id="clip0_115_220">
<rect width="45.16" height="21.6521" fill="white" transform="translate(2.01782) rotate(5.04027)"/>
</clipPath>
<clipPath id="clip1_115_220">
<rect width="31.31" height="31.31" fill="white" transform="matrix(-0.732637 -0.680619 -0.680619 0.732637 140.637 129.899)"/>
</clipPath>
</defs>
</svg>
