<svg width="168" height="82" viewBox="0 0 168 82" fill="none" xmlns="http://www.w3.org/2000/svg">
<path d="M130.706 26.7673C130.536 23.4212 130.558 19.9048 130.872 16.3638C131.046 14.5986 131.2 12.8053 131.683 11.0926C131.92 10.237 132.226 9.39987 132.625 8.6139C133.024 7.82793 133.517 7.09133 134.127 6.46965C134.733 5.84612 135.459 5.34652 136.257 5.02859C137.045 4.68725 137.913 4.55896 138.754 4.62969C139.597 4.70135 140.408 4.98799 141.125 5.40976C141.845 5.83246 142.477 6.38242 143.013 6.99884C144.086 8.23436 144.805 9.71051 145.123 11.2061C145.446 12.7081 145.388 14.2059 145.229 15.606C145.215 15.7421 145.199 15.8798 145.179 16.0158L145.116 16.4858L145.029 17.0828L144.98 17.3945L144.957 17.5508L144.946 17.6281C144.938 17.6511 144.953 17.6274 144.961 17.6204L144.986 17.5907L145.387 17.1025L145.587 16.8592L145.782 16.631C145.957 16.422 146.142 16.2203 146.326 16.0177C147.066 15.2153 147.86 14.4615 148.731 13.8038C150.457 12.4855 152.497 11.5228 154.68 11.2309C156.851 10.9307 159.16 11.3769 161.058 12.5936C162 13.2077 162.82 14.0159 163.485 14.9445C164.128 15.8869 164.551 16.9945 164.681 18.1507C164.817 19.267 164.668 20.4205 164.25 21.4707C163.835 22.5246 163.169 23.4649 162.391 24.2833C161.612 25.1035 160.719 25.8078 159.781 26.4346C158.841 27.0621 157.852 27.6084 156.855 28.1366C155.858 28.6621 154.856 29.1742 153.868 29.7142C152.88 30.2516 151.902 30.8052 150.934 31.3759C149.001 32.5158 147.115 33.7235 145.289 34.9941C143.149 36.484 141.097 38.0222 139.126 39.6121C138.632 40.0091 138.145 40.4117 137.663 40.817C137.422 41.021 137.183 41.2232 136.942 41.4272C136.822 41.5261 136.705 41.6375 136.583 41.7266C136.523 41.7778 136.466 41.7997 136.384 41.8869L136.324 42.0014C136.305 42.0322 136.293 42.0685 136.269 42.0964C135.94 42.5863 135.292 42.8372 134.717 42.7306C134.428 42.6777 134.163 42.5256 133.985 42.297C133.801 42.07 133.723 41.7839 133.638 41.4789C132.258 36.6883 131.348 31.8237 130.866 26.8289" stroke="#BDBCBC" stroke-width="1.5" stroke-miterlimit="10"/>
<g clip-path="url(#clip0_115_239)">
<path d="M17.5862 72.0731C16.9822 72.4306 16.2956 72.663 15.5852 72.747C14.8755 72.8313 14.1432 72.7826 13.4406 72.6013C12.7376 72.4191 12.068 72.092 11.4851 71.647C10.9 71.2032 10.4026 70.6429 10.0105 70.0177C9.61778 69.3921 9.32557 68.7013 9.14185 67.9836C9.05126 67.6246 8.98306 67.2587 8.94878 66.8898L8.92697 66.6123C8.92149 66.5199 8.90777 66.4279 8.91147 66.335L8.91085 66.0571L8.91068 65.9186L8.91028 65.8492L8.91523 65.7803C8.94723 65.0401 9.08922 64.3067 9.31838 63.6054C9.54788 62.9034 9.86333 62.2328 10.2391 61.6036C10.6157 60.9741 11.0536 60.3856 11.5328 59.8408C11.6513 59.7035 11.7778 59.5739 11.9 59.4402C12.0225 59.3075 12.1551 59.1844 12.2815 59.0563L12.3456 58.9927L12.3831 58.9555L12.4022 58.9371C12.408 58.9338 12.4046 58.9312 12.3997 58.9284L12.3889 58.9201L12.2468 58.8078C12.177 58.7516 12.1043 58.6978 12.0381 58.6379C11.9707 58.5789 11.9019 58.5208 11.8357 58.4609L11.6409 58.2761C10.619 57.2749 9.91667 55.9973 9.59769 54.6698C9.27589 53.3416 9.33644 51.9639 9.74144 50.7498C10.1416 49.5314 10.886 48.4975 11.7514 47.709C11.9522 47.5222 12.1681 47.3518 12.3866 47.1869C12.61 47.0278 12.8363 46.8736 13.0751 46.7392C13.5486 46.4648 14.0507 46.2393 14.5727 46.077L14.7688 46.0171L14.967 45.9665C15.0986 45.9297 15.2337 45.9086 15.3676 45.8795C15.6369 45.8344 15.9079 45.7966 16.1811 45.7841C16.7267 45.7499 17.2765 45.7888 17.8161 45.884C18.3556 45.9808 18.8834 46.1411 19.3905 46.3536C19.8953 46.5704 20.3817 46.8349 20.8314 47.1557C21.059 47.3119 21.2725 47.4878 21.483 47.6676C21.5841 47.762 21.6899 47.851 21.7864 47.951L21.9337 48.0975L22.0755 48.2498C22.1717 48.3504 22.2577 48.4591 22.3493 48.5635C22.4336 48.6737 22.5245 48.7794 22.6034 48.8937L22.7252 49.0632L22.8402 49.2377C22.8793 49.2955 22.9161 49.3545 22.9513 49.4149L23.0757 49.6236L23.2742 49.3913C23.3344 49.3231 23.3982 49.2586 23.4606 49.1925C23.5883 49.0635 23.72 48.9375 23.8599 48.82C24.1375 48.5832 24.4366 48.3702 24.7531 48.1829C25.385 47.807 26.0869 47.5397 26.8169 47.3836C28.2739 47.0578 29.8714 47.2521 31.2369 47.9699C31.5516 48.1349 31.8553 48.3227 32.1413 48.5353C32.4266 48.7492 32.6952 48.9844 32.9464 49.2382C33.1982 49.4907 33.4264 49.7671 33.638 50.0546C33.8496 50.342 34.0413 50.6449 34.2088 50.9611C34.3766 51.2766 34.527 51.6018 34.6507 51.9373C34.7741 52.2734 34.8758 52.6167 34.9532 52.966C35.1045 53.665 35.1582 54.3858 35.1039 55.0992C35.0009 56.5275 34.4908 57.9129 33.6948 59.0945C33.4984 59.3915 33.2799 59.6747 33.0493 59.9448C32.8177 60.2152 32.5723 60.4739 32.3101 60.7137C32.0481 60.9544 31.7758 61.183 31.4873 61.3913C31.4166 61.4448 31.342 61.4937 31.2695 61.5446C31.1973 61.5965 31.1231 61.6448 31.0479 61.6918C30.9727 61.7388 30.8996 61.7893 30.8224 61.8327L30.5824 61.9737C31.7283 63.3435 32.8691 64.708 34.0045 66.0648C34.1792 66.273 34.3535 66.4803 34.5272 66.6873C34.6144 66.791 34.701 66.8943 34.7875 66.9976C34.8095 67.0234 34.8268 67.0506 34.8463 67.0767C34.8645 67.1036 34.8775 67.1342 34.8931 67.1629C34.9035 67.1936 34.9165 67.2241 34.9235 67.2553C34.9282 67.2877 34.9384 67.319 34.9364 67.3518C34.9433 67.481 34.9001 67.6133 34.812 67.7086C34.7711 67.7593 34.7153 67.7945 34.6591 67.8262C34.6 67.8514 34.5373 67.8715 34.472 67.8757C34.3433 67.8867 34.2105 67.8512 34.0782 67.8336C33.946 67.8129 33.8138 67.7922 33.682 67.7693C32.6285 67.5923 31.5895 67.3773 30.5659 67.1242C29.5419 66.8733 28.533 66.5849 27.5388 66.2668C27.2902 66.1867 27.0426 66.1062 26.7957 66.0214L26.6109 65.9588L26.4915 65.9178L26.4588 65.9069L26.4426 65.9012C26.4409 65.9043 26.4415 65.9119 26.4404 65.9169L26.4362 65.983L26.4316 66.0496L26.4237 66.0976L26.4085 66.1938L26.3775 66.3858C26.2952 66.8987 26.2094 67.4089 26.104 67.9155C25.8941 68.9252 25.6003 69.9247 25.1014 70.8238C24.8532 71.2733 24.5599 71.6978 24.2198 72.0813C23.8798 72.4647 23.4927 72.8077 23.0604 73.0823C22.6286 73.3571 22.1507 73.5623 21.6494 73.6708C21.1497 73.7883 20.625 73.7874 20.1179 73.7005C19.8656 73.6504 19.6131 73.5891 19.3738 73.4907L19.2829 73.4566C19.253 73.4449 19.2242 73.4298 19.1944 73.4166L19.0182 73.3354L18.8482 73.2415L18.7635 73.1947L18.6826 73.1412C18.4615 73.0054 18.2639 72.8343 18.079 72.6534L17.9466 72.5103C17.9005 72.4639 17.8654 72.4091 17.8238 72.3588C17.7403 72.2587 17.6753 72.1456 17.6038 72.0369" stroke="#BDBCBC" stroke-width="1.5" stroke-miterlimit="10" stroke-linecap="round"/>
</g>
<defs>
<clipPath id="clip0_115_239">
<rect width="32.01" height="32.01" fill="white" transform="translate(0 66.3273) rotate(-61.0916)"/>
</clipPath>
</defs>
</svg>
