<svg width="207" height="132" viewBox="0 0 207 132" fill="none" xmlns="http://www.w3.org/2000/svg">
<g clip-path="url(#clip0_115_209)">
<path d="M41.9701 29.2449C41.3477 29.0469 40.6896 28.8557 40.0056 28.7199C39.3226 28.5856 38.6162 28.4981 37.9187 28.4823C36.5216 28.439 35.1664 28.6667 34.101 29.0297C32.4306 29.5829 30.9742 30.4946 29.4677 31.5047C28.0052 32.4861 26.3152 33.1752 24.6387 33.6187C23.6523 33.8794 22.6556 33.9439 21.6901 33.8548C20.7289 33.7535 19.7833 33.4812 18.942 32.9755" stroke="#BDBCBC" stroke-miterlimit="10" stroke-linecap="round"/>
<path d="M20.7533 23.1099C21.1227 23.3443 21.5133 23.5829 21.9353 23.782C22.3576 23.9787 22.8095 24.1396 23.2679 24.2373C23.7278 24.3339 24.1935 24.3723 24.6347 24.3574C25.0763 24.3399 25.4906 24.2714 25.8589 24.1748C26.4317 24.0314 26.9728 23.8043 27.4878 23.5274C28.0052 23.2509 28.4954 22.9233 28.9891 22.5616C29.4656 22.2129 29.9831 21.9184 30.5189 21.6572C31.0543 21.3985 31.5987 21.1667 32.1323 20.9295C32.7599 20.6551 33.3928 20.4595 34.0257 20.2999C34.6585 20.1492 35.2989 20.0265 35.9586 20.0192" stroke="#BDBCBC" stroke-miterlimit="10" stroke-linecap="round"/>
<path d="M48.7939 68.4144C49.6531 67.9224 50.6146 67.4069 51.5145 66.8639C51.7407 66.729 51.965 66.5977 52.18 66.4599C52.3954 66.3197 52.6064 66.1827 52.8117 66.0501C53.2204 65.7794 53.608 65.5226 53.9587 65.2891C54.2292 65.1049 54.5007 64.9223 54.7698 64.7392L55.2232 64.4259L55.5001 64.2324L55.5671 64.1863C55.5671 64.1863 55.5729 64.1819 55.5743 64.1808L55.5632 64.1781L55.5409 64.1725L55.4973 64.1628L55.3271 64.1232L55.0001 64.0496L54.7496 63.9966C54.5888 63.9634 54.4265 63.9313 54.2656 63.8981C53.9396 63.8349 53.6097 63.7725 53.2725 63.7155C52.6197 63.6032 51.9818 63.4147 51.3475 63.2189L50.8719 63.0715L50.7513 63.0347L50.6887 63.0147L50.6567 63.0053C50.6567 63.0053 50.6326 62.9944 50.6329 63.0098L50.5452 63.2532C50.4323 63.5649 50.3244 63.8774 50.2265 64.1912C49.9948 64.9268 49.7353 65.6227 49.4974 66.3203C49.2549 67.0147 49.0412 67.7142 48.7903 68.4126" stroke="#BDBCBC" stroke-miterlimit="10"/>
<path d="M42.9036 65.6305C43.5876 66.4882 44.2236 67.519 45.0369 68.3621C45.1372 68.4679 45.2437 68.5669 45.3515 68.6648L45.5148 68.806C45.5803 68.8507 45.6468 68.8969 45.7123 68.9416C45.7601 68.975 45.8051 69.0016 45.8496 69.0307C45.8665 69.047 45.8569 69.0162 45.8594 69.0076L45.8601 68.9667L45.8642 68.8851C45.8653 68.8596 45.8704 68.8244 45.8715 68.8079L45.8787 68.7576C45.8849 68.7238 45.8921 68.6914 45.8993 68.6591C45.9297 68.5285 45.987 68.4067 46.0365 68.2775C46.2403 67.7715 46.4268 67.2875 46.5928 66.8483C47.1106 65.4819 47.5453 64.1222 47.9081 62.6374L47.9709 62.3882L47.9832 62.3385C47.9869 62.3224 47.9973 62.3032 47.9714 62.3049L47.8724 62.2787C47.8476 62.2728 47.7922 62.2564 47.7505 62.2431L47.6177 62.2021L47.354 62.1165C47.0021 62.0012 46.6531 61.8746 46.3041 61.7481C45.6062 61.4951 44.9082 61.251 44.2066 61.041L44.1181 61.0137L44.0713 60.9997C44.0594 61.002 44.0609 61.0278 44.0554 61.0386L44.0132 61.2073C43.9879 61.3116 43.9615 61.4145 43.9366 61.5163C43.8853 61.721 43.834 61.9256 43.783 62.1278C43.6822 62.5335 43.5832 62.9356 43.4835 63.3338C43.3848 63.7334 43.2891 64.1309 43.1908 64.528C43.1391 64.7262 43.1058 64.9307 43.0124 65.1156C42.967 65.2082 42.9118 65.297 42.8477 65.3768C42.8318 65.3977 42.8149 65.4172 42.7969 65.4353C42.7904 65.4447 42.7724 65.4538 42.7774 65.4635L42.8011 65.4949L42.8968 65.6155" stroke="#BDBCBC" stroke-miterlimit="10"/>
<path d="M51.6539 47.4027C51.3716 46.8133 51.1124 46.1706 50.851 45.525C50.7203 45.2022 50.5885 44.8779 50.4589 44.5566C50.3921 44.3963 50.3279 44.2363 50.2633 44.0788C50.2288 43.9973 50.1958 43.9146 50.1613 43.833L50.0805 43.6452L50.0403 43.55L50.0202 43.5024L50.0094 43.4791L50.0047 43.467L50.0015 43.4627L50.0008 43.4587C50.0306 42.7703 49.9302 44.9918 50.0685 41.9188C50.0297 42.179 49.9931 42.4331 49.9569 42.6847C49.9384 42.813 49.9203 42.9388 49.9022 43.0646L49.8746 43.2558L49.8616 43.3464L49.8616 43.3553C49.8608 43.4053 49.8489 43.4524 49.7743 43.5154C49.78 43.6188 49.7688 43.6788 49.7576 43.7478C49.7492 43.7788 49.7456 43.8129 49.7351 43.841L49.7225 43.8842L49.7135 43.9112C49.6904 43.9824 49.6583 44.0537 49.6283 44.1279C49.5688 44.2738 49.5096 44.4171 49.4534 44.5583C49.3408 44.8406 49.234 45.1096 49.1333 45.3628C48.6058 46.6984 48.1406 48.0206 47.7332 49.4673C47.6848 49.6429 47.6303 49.8163 47.5733 49.9894L47.4859 50.2482L47.4011 50.4894L47.3676 50.5798L47.3632 50.592C47.3632 50.592 47.3694 50.5941 47.373 50.5959L47.3963 50.6029L47.4417 50.618L47.6752 50.6905L48.1951 50.8606C48.8873 51.091 49.5781 51.3226 50.2718 51.5071C50.3743 51.535 50.4744 51.5626 50.5758 51.5891L50.7338 51.6335L50.8252 51.6586L50.8709 51.6712C50.8802 51.6776 50.8795 51.6647 50.8817 51.6585L50.8864 51.6348C50.9287 51.4212 50.9721 51.2091 51.0141 50.998C51.0926 50.5957 51.1707 50.1959 51.247 49.7997C51.3986 49.0058 51.5113 48.2145 51.656 47.4146" stroke="#BDBCBC" stroke-miterlimit="10"/>
<path d="M53.4523 52.3558C53.5225 52.3588 53.5872 52.3906 53.6527 52.4264C53.6858 52.4462 53.7178 52.4647 53.7498 52.4831C53.7581 52.488 53.7653 52.4916 53.7761 52.4969L53.8196 52.5156C53.8498 52.5286 53.8815 52.5406 53.9117 52.5536C53.9455 52.5684 53.9714 52.5758 53.9963 52.5817L54.0711 52.5969C54.1186 52.6059 54.1675 52.6137 54.2125 52.6224L54.2301 52.6247C54.2301 52.6247 54.2438 52.6279 54.2373 52.6193L54.223 52.5853C54.2133 52.5635 54.2025 52.5402 54.1928 52.5184C54.1734 52.4748 54.1526 52.4322 54.1339 52.3925L54.0861 52.2963C54.0689 52.2645 54.0531 52.2316 54.0434 52.2187C54.0193 52.1809 53.9938 52.1441 53.9643 52.1081C53.9064 52.0374 53.8331 51.9673 53.7471 51.9134C53.7018 51.8893 53.6907 51.8686 53.6785 51.8195C53.6634 51.7726 53.6495 51.6643 53.619 51.573C53.6038 51.6158 53.5703 51.6344 53.5491 51.6751C53.5447 51.6873 53.5382 51.6967 53.5318 51.7061C53.5274 51.7094 53.5256 51.713 53.5224 51.7177L53.5166 51.722L53.5137 51.7242L53.5385 51.784L53.4937 51.9613C53.4822 52.0059 53.4724 52.0469 53.4688 52.09C53.459 52.1759 53.4653 52.2652 53.4541 52.3522" stroke="#BDBCBC" stroke-miterlimit="10"/>
<path d="M46.4177 53.1783C46.137 54.1818 45.7336 55.2533 45.3849 56.3014C45.208 56.8251 45.0387 57.3409 44.8821 57.8314C44.8438 57.9545 44.8059 58.075 44.7669 58.1941L44.7294 58.3122C44.7149 58.359 44.7019 58.4047 44.6904 58.4493C44.6525 58.507 44.7256 58.5079 44.7655 58.5248L44.8993 58.5672C45.1325 58.6422 45.3574 58.7123 45.5711 58.7795C46.2255 58.987 46.875 59.1847 47.5363 59.3713C47.8669 59.4646 48.2005 59.5557 48.5383 59.6435L48.8057 59.7129C48.8632 59.7501 48.8572 59.6673 48.8706 59.628L48.9016 59.4924C48.9382 59.3191 48.9761 59.1447 49.013 58.9689C49.2954 57.6054 49.8427 56.284 50.1453 54.9321C50.1922 54.7307 50.2403 54.5308 50.2866 54.3344L50.3072 54.2448C50.3176 54.2257 50.2942 54.2277 50.2824 54.221L50.2406 54.2077L50.0791 54.1615L49.7955 54.0797C49.4181 53.9725 49.0432 53.8655 48.6708 53.7589C47.9253 53.5508 47.1772 53.3781 46.4256 53.1768" stroke="#BDBCBC" stroke-miterlimit="10"/>
<path d="M39.5467 56.5432C40.3465 56.8112 41.1883 57.1978 42.0172 57.5313L42.2114 57.6088L42.2701 57.6295C42.2866 57.6305 42.3172 57.659 42.3179 57.627L42.3584 57.5068C42.3966 57.3927 42.4345 57.2811 42.4714 57.1681C42.5385 56.9604 42.6064 56.7567 42.6695 56.5588C42.7937 56.16 42.9122 55.7836 43.0194 55.4403C43.1837 54.9059 43.3393 54.378 43.4838 53.8384C43.556 53.5686 43.6247 53.297 43.6915 53.0201C43.7244 52.8809 43.7573 52.7417 43.7891 52.6011L43.8112 52.5015C43.8119 52.4875 43.8238 52.4673 43.8163 52.4573L43.7626 52.4462L43.5586 52.4098C43.0019 52.3078 42.4615 52.1286 41.9233 51.9432L41.7215 51.8737L41.625 51.8389L41.5736 51.8217C41.5606 51.8225 41.557 51.8477 41.5476 51.8593L41.359 52.2416C41.2361 52.4982 41.1181 52.7554 41.0113 53.0154C40.7592 53.6252 40.4887 54.2017 40.2455 54.7844C39.9977 55.364 39.7848 55.9508 39.5434 56.5389" stroke="#BDBCBC" stroke-miterlimit="10"/>
<path d="M40.0337 62.0048C40.2191 62.2414 40.4125 62.4854 40.6056 62.732L40.749 62.9219L40.7914 62.975C40.7971 62.9796 40.809 63.0043 40.8133 62.9921L40.8238 62.955L40.8578 62.8352C40.9029 62.6823 40.9469 62.5279 40.9921 62.375C41.1759 61.7676 41.3503 61.1807 41.4861 60.6925L41.5645 60.4068L41.6121 60.2273L41.6364 60.1216L41.6414 60.0954L41.6159 60.0855L41.5634 60.0669L41.2396 59.9527L40.96 59.8612C40.5844 59.7413 40.1987 59.6381 39.7935 59.545C39.402 59.4551 39.0347 59.2863 38.6699 59.1179L38.5386 59.0579L38.5048 59.0431C38.494 59.0378 38.4789 59.0268 38.4778 59.0433L38.4457 59.1057L38.3119 59.3749C38.2676 59.4689 38.229 59.5496 38.1843 59.6552C38.1608 59.6841 38.1911 59.7061 38.2069 59.73L38.2554 59.7943L38.3507 59.9084C38.9312 60.6291 39.4625 61.2905 40.0333 61.9983" stroke="#BDBCBC" stroke-miterlimit="10"/>
<path d="M42.9245 48.6377C42.8647 48.7771 42.8044 48.919 42.7438 49.0635C42.7128 49.1362 42.6818 49.209 42.6507 49.2817L42.6392 49.3084C42.6392 49.3084 42.6259 49.3297 42.6413 49.3292L42.6993 49.346L42.8151 49.3796C43.1231 49.4698 43.4329 49.5654 43.7373 49.6628C44.0503 49.7627 44.3583 49.8619 44.6504 49.9551L44.7335 49.9753C44.748 49.9554 44.7563 49.9245 44.7674 49.9004L44.818 49.7725C44.8443 49.7055 44.8706 49.6386 44.8966 49.5741C44.9475 49.4438 44.9966 49.317 45.0431 49.1989C45.3339 48.4546 45.5715 47.7146 45.754 46.8929C45.7761 46.7933 45.8042 46.6958 45.8349 46.5986C45.849 46.5544 45.8696 46.4917 45.8811 46.4651L45.9194 46.3689L46.0157 46.146L46.0294 46.1132C46.0294 46.1132 46.0182 46.1194 46.0128 46.1212L45.9721 46.1452L45.8796 46.1994C45.7499 46.2794 45.5569 46.3983 45.3923 46.5069C45.2234 46.6188 45.0578 46.735 44.8964 46.8569C44.5161 47.1352 44.1473 47.4048 43.7839 47.6725C43.6027 47.8071 43.423 47.9406 43.2407 48.0738L43.1067 48.175C43.0826 48.191 43.0588 48.2045 43.039 48.2262C43.035 48.2538 43.0321 48.2829 43.0271 48.3092C43.0086 48.4195 42.975 48.5278 42.9303 48.6334" stroke="#BDBCBC" stroke-miterlimit="10"/>
<path d="M33.8701 54.2639C33.9057 54.2931 33.9463 54.3319 33.979 54.3543C34.029 54.3546 34.0773 54.3585 34.1276 54.3653C34.2259 54.3786 34.3248 54.4047 34.4184 54.4417C34.6033 54.5217 34.7886 54.6082 34.9749 54.6962C35.3487 54.8735 35.7264 55.0501 36.0966 55.2256C36.2833 55.311 36.4689 55.395 36.6506 55.4798C36.7556 55.526 36.8592 55.5733 36.9632 55.6181L37.0689 55.6593C37.0689 55.6593 37.088 55.6695 37.0938 55.6652L37.1053 55.6385L37.1295 55.5866C37.1576 55.525 37.1847 55.462 37.2114 55.4015C37.3636 55.0488 37.5093 54.7145 37.6403 54.4116C38.0443 53.4697 38.4166 52.5248 38.7336 51.5096C38.7636 51.4085 38.7903 51.33 38.8184 51.2505L38.8412 51.1907L38.8531 51.1615L38.8592 51.1457C38.8592 51.1457 38.8646 51.1349 38.856 51.1414L38.7429 51.2134L38.5095 51.3537L38.1714 51.5441C37.7098 51.7987 37.2474 52.0492 36.816 52.3348C36.3082 52.669 35.8018 52.9662 35.3146 53.2827C34.8252 53.5963 34.3591 53.9349 33.8697 54.2575" stroke="#BDBCBC" stroke-miterlimit="10"/>
<path d="M57.5193 61.945C57.6711 61.9783 57.8193 62.0367 57.9553 62.1179C57.9895 62.1392 58.0222 62.1615 58.0535 62.185L58.101 62.2209C58.1164 62.2204 58.1323 62.1994 58.1478 62.19C58.2126 62.141 58.2774 62.092 58.3412 62.0416C58.4708 61.9437 58.6009 61.8433 58.7309 61.7428L58.8303 61.6677L58.8548 61.6492C58.8649 61.6416 58.8498 61.6306 58.8483 61.6227L58.8189 61.5687L58.7039 61.3506C58.3964 60.7668 58.0889 60.174 57.7893 59.5886C57.1927 58.4183 56.6169 57.2905 56.1272 56.3576C56.0313 56.1767 55.9368 55.9947 55.842 55.8153C55.833 55.7974 55.8079 55.7491 55.7914 55.7212C55.786 55.7141 55.7824 55.7034 55.777 55.6962L55.7486 55.6885L55.6931 55.6721L55.5402 55.6284L55.2452 55.5463C54.8512 55.4381 54.4569 55.3324 54.0593 55.2314C53.861 55.1816 53.6602 55.1315 53.4594 55.0813L53.1568 55.0072L52.9906 54.9669L52.9024 54.946L52.8589 54.9363C52.8589 54.9363 52.8442 54.9317 52.8377 54.9321L52.833 54.9559C52.753 55.3772 52.6723 55.8036 52.5906 56.2376C52.439 57.0583 52.1956 57.8655 51.9454 58.6665C51.8209 59.0678 51.6952 59.4676 51.5696 59.8674L51.479 60.1668L51.4342 60.3172L51.4085 60.4061L51.397 60.4507C51.4034 60.4593 51.4225 60.4606 51.4358 60.4662L51.7532 60.5538L52.0525 60.6326C52.992 60.8759 53.8966 61.1119 54.7994 61.3246C55.7007 61.5384 56.5963 61.7386 57.5085 61.9397" stroke="#BDBCBC" stroke-miterlimit="10"/>
<path d="M49.1048 32.1067C45.8481 34.3223 42.2179 36.6696 38.7343 38.9713C35.2489 41.2676 31.9018 43.5043 29.1222 45.3661C28.0418 46.0925 26.9686 46.8134 25.8939 47.5355C25.3577 47.8979 24.8229 48.2593 24.2866 48.6217L24.086 48.7576L23.9481 48.8505L23.8782 48.8988L23.8437 48.9249L23.8242 48.9351C23.8184 48.9395 23.8303 48.9462 23.8321 48.9516L24.1646 49.4067C24.3558 49.6659 24.5445 49.9247 24.7357 50.1838C25.502 51.2193 26.2722 52.263 27.0526 53.3171C27.2485 53.5794 27.4454 53.8432 27.641 54.108L27.9378 54.5071L28.0155 54.6099L28.0349 54.6356C28.0392 54.6503 28.0525 54.629 28.0615 54.6289L28.1177 54.5954L28.3356 54.4645C28.9082 54.1172 29.4905 53.7738 30.0652 53.4114C32.3037 52.0255 34.5689 50.6419 36.8035 49.2119C39.0381 47.7819 41.2385 46.3037 43.3538 44.7576C45.8335 42.9451 48.1948 41.1526 50.4755 39.3043C50.7615 39.0749 51.0442 38.8411 51.327 38.6074L52.1824 37.9007L52.2228 37.8702C52.2314 37.8637 52.2235 37.8562 52.2206 37.8494L52.2084 37.8272L52.1667 37.7511L52.1032 37.631L51.9746 37.3918L51.7173 36.9135L51.2029 35.9568C50.5164 34.6794 49.8273 33.4017 49.1336 32.1119" stroke="#BDBCBC" stroke-miterlimit="10"/>
<path d="M28.0823 57.6669C27.7892 57.8031 27.4456 57.7645 27.1531 57.6469C27.0063 57.5873 26.8653 57.5055 26.7441 57.402C26.6186 57.3017 26.5316 57.1656 26.436 57.036C26.0626 56.5177 25.6845 55.9961 25.3067 55.4721C24.5513 54.4239 23.7857 53.3654 23.0162 52.2987C22.6309 51.7647 22.2445 51.2292 21.8571 50.6923C21.6634 50.4238 21.4696 50.1553 21.2748 49.8855L20.9826 49.4806C20.8823 49.3479 20.8008 49.201 20.7506 49.0416C20.7082 48.8807 20.6623 48.7181 20.6607 48.5512C20.6591 48.3843 20.6923 48.2156 20.7681 48.0643C20.8402 47.9111 20.9479 47.7782 21.0765 47.6698C21.2051 47.5615 21.3513 47.4735 21.4896 47.378C22.0511 47.001 22.6136 46.6254 23.179 46.2477L24.0247 45.6807L24.4482 45.3967L24.5577 45.3229C24.5577 45.3229 24.5717 45.3146 24.5706 45.3132L24.5523 45.3068L24.5192 45.296L24.4591 45.2763L24.2173 45.1989C23.5751 44.9867 22.9553 44.7082 22.3679 44.3739C21.192 43.7038 20.151 42.8019 19.3123 41.7425C18.4741 40.6807 17.8404 39.4643 17.4173 38.1852C16.9982 36.9054 16.8117 35.5441 16.926 34.2067C16.9839 33.5375 17.1137 32.8766 17.3195 32.2414C17.5231 31.6033 17.7839 30.987 18.03 30.3662C18.2771 29.7468 18.5088 29.1189 18.6599 28.4712C18.7311 28.1461 18.7861 27.8176 18.8045 27.4854C18.8253 27.1535 18.8127 26.8222 18.7802 26.4947C18.7154 25.8397 18.5648 25.2 18.3995 24.5738C18.3931 24.5563 18.3938 24.5333 18.3773 24.5054L18.3514 24.4532C18.3346 24.4189 18.3206 24.3824 18.3066 24.3458C18.2811 24.2732 18.2599 24.1972 18.2492 24.1201C18.2431 24.0821 18.2385 24.043 18.2374 24.0057L18.2371 23.9723C18.2346 23.954 18.2296 23.9444 18.2281 23.9365L18.212 23.8792L18.1492 23.6463C18.0603 23.3368 17.9886 23.0233 17.9166 22.7122C17.6284 21.468 17.4519 20.2068 17.4315 18.9577C17.4021 17.7086 17.4901 16.474 17.696 15.2759C17.9157 14.0809 18.2476 12.9266 18.6712 11.8309C19.1034 10.7376 19.6547 9.71812 20.2628 8.7678C20.4246 8.53571 20.5861 8.30613 20.745 8.07622L20.8647 7.90512L20.9958 7.74327C21.0834 7.63453 21.1706 7.52831 21.2567 7.42066C21.5911 6.97973 21.9791 6.59474 22.3445 6.19772C22.7091 5.78779 23.2909 5.61741 23.8137 5.73145C24.0738 5.78831 24.3166 5.92104 24.4777 6.12227C24.6412 6.32383 24.7058 6.58898 24.6907 6.85368L24.6697 7.05344L24.6378 7.26586C24.6175 7.40674 24.5943 7.5498 24.5891 7.69273C24.5622 7.97762 24.5659 8.26407 24.5775 8.54902C24.6057 9.11961 24.7211 9.68269 24.8987 10.2234C25.2583 11.3015 25.8886 12.2918 26.7368 13.0524C27.1597 13.4325 27.6312 13.7602 28.1446 14.0114C28.6561 14.2663 29.2095 14.4268 29.765 14.5452C30.8798 14.7839 32.0159 14.8383 33.1311 15.0116C34.2456 15.172 35.3404 15.5042 36.2777 16.137C36.7485 16.4428 37.1765 16.8146 37.5367 17.2466C37.7146 17.4642 37.8752 17.6948 38.0121 17.939C38.1476 18.1842 38.2564 18.4451 38.3436 18.7133C38.5151 19.2519 38.562 19.8262 38.7148 20.388C38.7524 20.5277 38.7991 20.6673 38.8594 20.8011C38.8889 20.8731 38.9172 20.9256 38.9621 21.006L39.1409 21.1468C39.2513 21.2361 39.3674 21.3209 39.475 21.4124C39.526 21.459 39.5738 21.5103 39.6159 21.566C39.6364 21.5931 39.658 21.6217 39.6784 21.6488C39.6979 21.6745 39.7162 21.7077 39.7399 21.7481C39.8143 21.7928 39.8712 21.8171 39.9338 21.8461C39.9949 21.8761 40.0565 21.9036 40.1194 21.9301C40.2424 21.9851 40.3687 22.0355 40.495 22.0858C40.7479 22.184 41.0048 22.2725 41.262 22.3584C41.7776 22.5318 42.2968 22.6979 42.7958 22.9152C43.7984 23.3439 44.6852 24.0507 45.3441 24.9409C46.0072 25.8279 46.4687 26.8761 46.6655 27.9875C46.7679 28.5424 46.8015 29.1112 46.7697 29.6801C46.7609 29.8212 46.7499 29.9685 46.7307 30.1018C46.7191 30.2272 46.6941 30.347 46.6768 30.4677C46.671 30.481 46.6861 30.4651 46.6901 30.4644L46.7088 30.4502L46.7484 30.4248L46.8266 30.3725L46.9789 30.2686L47.3275 30.0322L48.3853 29.3118C48.5653 29.1937 48.731 29.0685 48.9229 28.9572C49.1152 28.8523 49.3309 28.7813 49.5522 28.7689C50.0004 28.742 50.4338 28.9684 50.7074 29.3066C50.8501 29.4746 50.9474 29.6724 51.0455 29.8561L51.3447 30.4171C52.1405 31.9169 52.9373 33.4181 53.7351 34.9208C54.1314 35.673 54.5287 36.4267 54.9274 37.1793C55.0255 37.372 55.1286 37.5475 55.2224 37.7525C55.3049 37.9636 55.3072 38.1973 55.2555 38.4135C55.2039 38.6296 55.1054 38.8318 54.9746 39.0091C54.8492 39.1935 54.6666 39.3292 54.5037 39.4611L52.5047 41.0921L52.2558 41.2958L52.1308 41.397L52.0761 41.4383L52.0523 41.4608C52.0436 41.4673 52.03 41.4731 52.0411 41.4849L52.2867 42.0527L52.7945 43.2252L53.8114 45.5691L54.066 46.1548L54.0815 46.1902C54.089 46.2002 54.0994 46.208 54.107 46.218C54.126 46.2372 54.1437 46.2576 54.1613 46.2779C54.1965 46.3185 54.2274 46.3625 54.2569 46.4075C54.3144 46.4986 54.3578 46.598 54.3869 46.6994C54.4027 46.7503 54.4116 46.804 54.4195 46.8564C54.4299 46.9091 54.4219 46.9644 54.4528 47.0083L54.5911 47.2963L54.8651 47.8718C55.5993 49.4069 56.3309 50.9416 57.0643 52.4728L57.3398 53.0472L57.477 53.3337L57.5449 53.4775L57.5793 53.5501C57.5916 53.5722 57.5984 53.6052 57.6271 53.6194C57.7919 53.7505 57.914 53.9273 57.9916 54.1198C58.0304 54.2161 58.0594 54.3175 58.0791 54.4214C58.0906 54.4755 58.088 54.5201 58.1049 54.5813L58.1792 54.7247C58.565 55.4781 58.9562 56.2297 59.3507 56.9766C59.7451 57.7234 60.1464 58.4674 60.5509 59.2067L61.162 60.3123L61.4717 60.8631C61.5723 61.0472 61.6866 61.2254 61.7656 61.4169C61.8564 61.642 61.9084 61.8875 61.8876 62.1296C61.8694 62.3721 61.7788 62.6087 61.6257 62.7983C61.4783 62.9926 61.2662 63.1282 61.0763 63.2872L60.4943 63.7448C59.7174 64.3518 58.9311 64.9434 58.1395 65.519C56.5562 66.67 54.9457 67.761 53.3096 68.7882C52.4846 69.2925 51.6811 69.8254 50.8608 70.324C50.0376 70.8157 49.1924 71.2815 48.2812 71.5729C47.8297 71.73 47.3589 71.8166 46.8856 71.858L46.5296 71.869C46.4101 71.8786 46.2932 71.8526 46.1759 71.847C45.9383 71.8381 45.7088 71.7738 45.4781 71.7261C45.3619 71.704 45.2554 71.6499 45.1439 71.6131C45.0349 71.5676 44.9194 71.5405 44.8147 71.4828C44.6003 71.3847 44.3982 71.2638 44.2014 71.1322C43.8105 70.8692 43.4628 70.5466 43.1381 70.2067C42.492 69.5221 41.9486 68.7487 41.3551 68.0199C40.7717 67.2834 40.1883 66.547 39.6035 65.8117C38.4378 64.3402 37.2706 62.8699 36.1038 61.397C34.937 59.9241 33.7702 58.4513 32.6002 56.9741L32.1613 56.42C32.02 56.233 31.8535 56.0605 31.7483 55.8463C31.7224 55.7941 31.6994 55.7397 31.6808 55.6821C31.6707 55.6538 31.6632 55.6258 31.6571 55.5968C31.6323 55.6088 31.6067 55.6259 31.579 55.6401L31.2707 55.8192L30.6528 56.1783C29.8278 56.6557 29.001 57.1367 28.1731 57.6163" stroke="#BDBCBC" stroke-miterlimit="10"/>
</g>
<g clip-path="url(#clip1_115_209)">
<path d="M195.787 110.894C196.879 111.565 197.718 112.657 198.104 113.908C198.297 114.532 198.379 115.197 198.317 115.854C198.284 116.182 198.227 116.508 198.127 116.824C198.035 117.142 197.904 117.448 197.739 117.736C197.409 118.311 196.945 118.809 196.4 119.193C195.855 119.578 195.236 119.857 194.588 120.022C193.94 120.188 193.26 120.235 192.596 120.149C192.265 120.107 191.937 120.031 191.622 119.921C191.464 119.867 191.31 119.802 191.16 119.729C191.086 119.69 191.009 119.657 190.938 119.614L190.83 119.551C190.801 119.534 190.737 119.497 190.691 119.465C189.052 120.985 187.416 122.504 185.802 124.001C185.001 124.748 184.205 125.487 183.417 126.221C183.317 126.31 183.223 126.411 183.123 126.482C183.021 126.555 182.905 126.611 182.786 126.637C182.667 126.664 182.545 126.654 182.439 126.605C182.392 126.58 182.33 126.54 182.274 126.507L182.104 126.401C181.652 126.118 181.194 125.85 180.741 125.582C177.091 123.47 173.391 121.927 170.012 120.889C169.747 120.81 169.484 120.724 169.218 120.651C168.955 120.574 168.682 120.5 168.428 120.424C168.188 120.337 167.974 120.145 167.91 119.902C167.898 119.841 167.887 119.779 167.893 119.717C167.893 119.686 167.901 119.655 167.906 119.624L167.928 119.524L168.019 119.123C168.262 118.052 168.505 116.984 168.746 115.916C168.988 114.847 169.229 113.78 169.471 112.71C169.592 112.175 169.713 111.64 169.834 111.104L170.015 110.3L170.106 109.897C170.168 109.795 170.036 109.737 170.007 109.694C169.956 109.648 169.908 109.599 169.861 109.551C169.094 108.769 168.543 107.772 168.285 106.698C168.022 105.625 168.024 104.481 168.314 103.402C168.459 102.863 168.677 102.341 168.971 101.861C169.267 101.382 169.635 100.945 170.063 100.573C170.919 99.8251 172 99.3356 173.137 99.1272C174.237 98.93 175.397 99.0065 176.458 99.3955L176.538 99.4243L176.573 99.4367L176.582 99.4407C176.582 99.4407 176.584 99.4351 176.586 99.4323L176.59 99.4136L176.634 99.2377C176.671 99.1023 176.71 98.9669 176.755 98.8332C176.845 98.5663 176.952 98.3056 177.074 98.0512C177.319 97.5433 177.63 97.0681 177.997 96.6389C178.18 96.4247 178.374 96.2183 178.586 96.0329L178.742 95.8899C178.794 95.8421 178.845 95.7942 178.902 95.7523L179.235 95.4914C179.346 95.404 179.469 95.3326 179.584 95.253L179.761 95.1361C179.821 95.0988 179.884 95.0671 179.945 95.0316C180.069 94.9644 180.19 94.8921 180.316 94.8281L180.701 94.6518L180.797 94.6079C180.83 94.5948 180.863 94.583 180.897 94.5713L181.096 94.4995C181.228 94.4512 181.36 94.4001 181.498 94.368C181.634 94.3317 181.769 94.2917 181.906 94.2582L182.322 94.1808C182.461 94.1491 182.602 94.1462 182.742 94.1293L182.953 94.108C183.023 94.0998 183.095 94.1041 183.165 94.102C183.306 94.1014 183.447 94.0962 183.588 94.1002L184.01 94.1337L184.115 94.1417L184.22 94.1593L184.429 94.1957L184.637 94.232C184.707 94.2433 184.774 94.2673 184.842 94.2837C184.977 94.3209 185.114 94.3552 185.249 94.3965L185.645 94.5453C186.164 94.763 186.66 95.0359 187.105 95.3818C187.998 96.0669 188.705 96.9778 189.178 97.9886C189.415 98.4942 189.594 99.0272 189.711 99.5712C189.739 99.7077 189.77 99.8434 189.787 99.9815C189.806 100.119 189.831 100.257 189.839 100.395C189.847 100.534 189.868 100.672 189.866 100.811L189.871 101.035L189.873 101.161C189.871 101.169 189.876 101.166 189.881 101.162L189.895 101.155L189.923 101.141L189.979 101.113L190.089 101.06C190.121 101.045 190.152 101.03 190.184 101.017C190.247 100.988 190.311 100.963 190.375 100.937C190.504 100.887 190.636 100.842 190.768 100.802C191.034 100.724 191.306 100.668 191.581 100.635C192.131 100.568 192.691 100.595 193.231 100.712C193.356 100.74 193.479 100.771 193.602 100.809L193.713 100.844L193.742 100.853C193.749 100.852 193.748 100.836 193.752 100.829L193.766 100.772C193.787 100.692 193.799 100.638 193.821 100.576C193.895 100.334 193.995 100.1 194.118 99.8791C194.362 99.4376 194.699 99.0484 195.099 98.7459C195.3 98.5956 195.515 98.4636 195.744 98.3621C195.855 98.3048 195.975 98.2679 196.091 98.2231C196.212 98.1885 196.33 98.1507 196.453 98.129C196.575 98.0995 196.699 98.0899 196.822 98.0728C196.947 98.0679 197.071 98.056 197.196 98.0636C197.321 98.0623 197.444 98.0806 197.568 98.0915C197.689 98.114 197.813 98.1304 197.933 98.1646C198.054 98.1903 198.17 98.2343 198.288 98.2722C198.403 98.3199 198.52 98.362 198.629 98.421C198.852 98.5277 199.061 98.663 199.256 98.8148C199.453 98.9642 199.63 99.1372 199.789 99.325C199.869 99.4184 199.943 99.517 200.012 99.618L200.076 99.7154L200.093 99.7406C200.102 99.74 200.111 99.7343 200.121 99.7309L200.178 99.7085L200.359 99.6361C201.281 99.285 202.271 99.1279 203.249 99.1694C203.491 99.1792 203.742 99.1989 203.975 99.2376C204.088 99.264 204.193 99.3165 204.275 99.3936C204.36 99.4698 204.414 99.5748 204.444 99.6848C204.5 99.9073 204.451 100.155 204.323 100.346C204.258 100.441 204.173 100.521 204.073 100.577C203.974 100.631 203.86 100.659 203.745 100.661C203.634 100.662 203.507 100.639 203.384 100.63C203.261 100.619 203.137 100.613 203.014 100.612C202.766 100.608 202.519 100.619 202.273 100.647C201.782 100.702 201.298 100.824 200.839 101.005C200.811 101.017 200.782 101.027 200.753 101.04L200.659 101.08L200.597 101.107L200.567 101.12C200.565 101.13 200.569 101.142 200.569 101.153L200.576 101.22L200.581 101.275C200.591 101.395 200.594 101.515 200.589 101.635C200.582 101.874 200.548 102.113 200.488 102.345C200.458 102.46 200.421 102.575 200.377 102.686C200.337 102.8 200.284 102.908 200.233 103.016C200.122 103.227 200 103.436 199.848 103.622C199.699 103.81 199.535 103.988 199.35 104.141C199.261 104.223 199.161 104.29 199.066 104.363C198.964 104.427 198.867 104.498 198.76 104.553C198.552 104.673 198.328 104.765 198.1 104.84L197.927 104.89C197.869 104.905 197.81 104.916 197.751 104.93C197.692 104.944 197.633 104.955 197.574 104.961C197.527 104.968 197.423 104.984 197.334 104.988C197.343 105.067 197.374 105.184 197.381 105.235C197.394 105.299 197.403 105.363 197.414 105.427C197.435 105.557 197.451 105.685 197.463 105.815C197.488 106.076 197.496 106.337 197.488 106.598C197.473 107.122 197.387 107.642 197.245 108.147C196.956 109.159 196.421 110.097 195.735 110.906" stroke="#BDBCBC" stroke-miterlimit="10"/>
<path d="M171.685 110.096C170.894 112.801 170.172 116.084 169.648 118.415C169.586 118.691 169.524 118.966 169.462 119.24L170.343 119.498C170.617 119.582 170.891 119.666 171.167 119.75C171.441 119.837 171.717 119.925 171.994 120.014C172.276 120.107 172.56 120.202 172.847 120.297C172.976 119.873 173.112 119.428 173.25 118.976C173.789 117.174 174.505 115.395 175.093 113.62C175.197 113.311 175.301 113.005 175.403 112.701C175.456 112.55 175.507 112.4 175.559 112.25L175.637 112.026L175.675 111.914C175.69 111.872 175.708 111.818 175.729 111.768C175.685 111.742 175.614 111.716 175.572 111.696L175.446 111.64L175.193 111.527C175.024 111.453 174.856 111.378 174.688 111.304C174.352 111.157 174.017 111.011 173.682 110.864C173.011 110.575 172.337 110.297 171.646 110.039L171.639 110.035L171.633 110.042L171.615 110.063" stroke="#BDBCBC" stroke-miterlimit="10"/>
<path d="M174.321 120.757C175.07 121.098 175.852 121.462 176.639 121.84C177.032 122.029 177.427 122.222 177.818 122.418C178.014 122.517 178.21 122.615 178.405 122.714C178.615 122.823 178.826 122.931 179.036 123.04C179.274 122.671 179.509 122.306 179.74 121.947C179.96 121.603 180.176 121.265 180.386 120.936C180.803 120.277 181.199 119.652 181.559 119.085C181.912 118.524 182.263 117.967 182.616 117.408C182.791 117.128 182.966 116.847 183.142 116.565C183.229 116.424 183.317 116.282 183.406 116.14C183.451 116.07 183.492 115.995 183.539 115.929C183.55 115.913 183.562 115.897 183.576 115.88C183.588 115.865 183.601 115.85 183.62 115.828C183.656 115.789 183.7 115.751 183.74 115.716C183.743 115.711 183.733 115.708 183.727 115.704L183.705 115.694L183.663 115.671L183.579 115.628L183.44 115.557C183.351 115.512 183.261 115.465 183.171 115.42C182.99 115.329 182.809 115.239 182.626 115.147C182.259 114.965 181.886 114.784 181.506 114.603C180.77 114.253 180.037 113.885 179.304 113.515C178.937 113.33 178.571 113.146 178.204 112.961L177.653 112.687L177.378 112.552L177.239 112.486C177.191 112.463 177.137 112.433 177.088 112.414C176.999 112.669 176.912 112.922 176.824 113.175C176.74 113.424 176.656 113.673 176.573 113.919C175.784 116.303 174.952 118.487 174.282 120.811" stroke="#BDBCBC" stroke-miterlimit="10"/>
<path d="M182.548 124.907C184.627 123.199 186.956 120.992 188.619 119.43C188.841 119.222 189.061 119.015 189.28 118.809L188.726 118.485L188.24 118.205C187.916 118.021 187.59 117.837 187.259 117.655C186.599 117.292 185.926 116.933 185.226 116.578L185.078 116.503L185.02 116.475L184.993 116.46L184.979 116.453C184.979 116.453 184.974 116.45 184.972 116.45L184.972 116.458C184.97 116.479 184.966 116.499 184.961 116.519C184.956 116.539 184.952 116.552 184.94 116.582C184.919 116.636 184.887 116.681 184.861 116.725L184.693 116.994C184.579 117.172 184.464 117.349 184.35 117.528C184.119 117.884 183.883 118.238 183.647 118.59C183.174 119.295 182.7 119.996 182.253 120.704C181.694 121.589 181.132 122.429 180.587 123.268L180.372 123.599L180.335 123.657L180.316 123.687L180.307 123.701C180.305 123.705 180.315 123.707 180.318 123.71L180.438 123.78L180.61 123.881L181.258 124.254C181.692 124.5 182.131 124.739 182.58 124.971" stroke="#BDBCBC" stroke-miterlimit="10"/>
</g>
<defs>
<clipPath id="clip0_115_209">
<rect width="36.27" height="69.2427" fill="white" transform="translate(0.297974 22.59) rotate(-37.0648)"/>
</clipPath>
<clipPath id="clip1_115_209">
<rect width="32.97" height="34.6753" fill="white" transform="translate(176.453 85.9635) rotate(25.5267)"/>
</clipPath>
</defs>
</svg>
