<svg width="115" height="221" viewBox="0 0 115 221" fill="none" xmlns="http://www.w3.org/2000/svg">
<path d="M24.3995 33.8906C29.4106 26.9507 35.1802 19.4515 44.1382 17.8513M23.7914 33.4515C23.5489 33.7873 23.6246 34.2562 23.9604 34.4986C24.2962 34.7411 24.765 34.6655 25.0075 34.3296C30.0467 27.3508 35.6537 20.1288 44.2701 18.5896C48.1423 17.8981 52.1826 18.5529 55.206 21.02C58.1423 23.4162 59.7903 27.1724 60.3527 30.9518C60.5205 32.0807 60.5881 33.2269 60.6578 34.407C60.6636 34.5057 60.6694 34.6047 60.6753 34.7039L61.424 34.6592L60.6753 34.7039C60.7496 35.9484 60.8001 37.1851 60.792 38.4169L60.792 38.417C60.7764 40.8201 60.5075 43.1903 59.9223 45.502C59.8207 45.9036 60.0638 46.3115 60.4654 46.4132C60.8669 46.5148 61.2748 46.2717 61.3765 45.8701C61.9948 43.4273 62.2757 40.9354 62.292 38.4267C62.3003 37.1489 62.2479 35.876 62.1727 34.6146C62.1666 34.5128 62.1606 34.4107 62.1546 34.3082C62.0858 33.1407 62.0145 31.9293 61.8364 30.7312L61.8364 30.7311C61.238 26.7103 59.4669 22.5611 56.1543 19.8578L55.6801 20.4389L56.1543 19.8578C52.7102 17.0473 48.1928 16.3653 44.0063 17.113L44.0063 17.113C34.7067 18.7742 28.7744 26.5506 23.7914 33.4515ZM21.4677 32.6921C21.7658 32.1944 22.0666 31.6989 22.3706 31.2068L22.3708 31.2065C25.3445 26.3979 28.6891 21.7639 33.046 18.2436L33.0461 18.2435C37.1093 14.9594 42.038 12.859 47.2679 12.712L47.268 12.712C49.7386 12.6423 52.2414 13.0493 54.4903 14.0206C56.7369 14.991 58.7308 16.5338 60.4324 18.3437L60.4324 18.3438C62.1344 20.1538 63.5261 22.2784 64.4412 24.5702C65.3629 26.8795 65.7084 29.2795 65.7266 31.8025C65.7656 37.1738 64.7857 42.6344 63.2585 47.8129C63.2022 48.0036 63.224 48.2088 63.319 48.3835C63.6792 49.0455 63.8616 49.798 63.8292 50.5318C63.8189 50.7667 63.9193 50.9929 64.1006 51.1428C64.2818 51.2926 64.5228 51.3488 64.7516 51.2946C65.7486 51.0581 66.8261 51.151 67.8118 51.5403C70.2168 52.491 71.7043 54.8978 71.0197 57.3083L71.0197 57.3084C70.3872 59.5365 68.1165 61.2919 65.8202 61.1924C65.4589 61.1768 65.1378 61.4212 65.0568 61.7737C64.8653 62.6072 64.4307 63.3665 63.8012 63.9986C62.5145 65.2896 60.5391 65.7372 58.9094 64.9898L58.9093 64.9897C57.47 64.33 56.4223 62.9926 56.1605 61.4811C56.1219 61.2586 55.9851 61.0652 55.7881 60.9548C55.591 60.8444 55.3547 60.8287 55.1447 60.9121C52.8088 61.8394 50.3754 62.4809 48.3641 61.4735L48.364 61.4735C46.7541 60.6675 45.6752 58.8708 46.0284 57.3277C46.077 57.1157 46.0311 56.893 45.9027 56.7175C45.7743 56.5419 45.576 56.4308 45.3592 56.4129C44.6495 56.3541 43.9371 55.9619 43.4363 55.3705C42.9378 54.7817 42.7002 54.0592 42.8238 53.3696C42.9674 52.5691 43.5144 51.9685 44.2563 51.6437C45.0081 51.3145 45.8996 51.299 46.6233 51.6281C46.8145 51.715 47.0335 51.7178 47.2268 51.6357C47.4202 51.5535 47.5703 51.3941 47.6405 51.1961C48.1189 49.8479 49.1557 48.7087 50.4609 48.2035L50.461 48.2035C52.0984 47.5694 53.995 47.8715 55.3927 48.9269C55.5728 49.0628 55.8044 49.1105 56.0235 49.0567C56.2426 49.0029 56.4259 48.8533 56.5225 48.6494C56.676 48.3253 56.8824 48.0235 57.1302 47.7518C57.3027 47.5627 57.3662 47.2995 57.301 47.054C58.3149 42.663 59.3714 37.9228 58.6919 33.2155C58.1976 29.7864 56.7453 26.228 53.9847 23.832L53.4931 24.3984L53.9847 23.832C51.108 21.3354 47.266 20.6212 43.6683 21.1604L43.6682 21.1604C39.8917 21.7268 36.5412 23.5649 33.6904 25.9085L33.6903 25.9085C30.8789 28.2198 28.6842 31.0976 26.5646 33.8841C26.4251 34.0675 26.3776 34.305 26.436 34.5279C26.4943 34.7509 26.6519 34.9347 26.8634 35.0263C28.6511 35.8007 29.83 37.5506 29.5124 39.4253C29.1988 41.2751 27.7894 42.8706 26.0271 43.3191C25.7869 43.3802 25.5925 43.5561 25.5075 43.7889C25.4226 44.0217 25.4581 44.2815 25.6025 44.4829C26.1739 45.2799 26.4478 46.2768 26.3641 47.2803L26.3641 47.2805C26.1534 49.8156 23.6137 51.4044 21.0664 50.8144C19.1358 50.3674 17.8589 48.4983 17.7903 46.5013C17.7804 46.2138 17.607 45.9573 17.344 45.8411C17.0809 45.7248 16.7745 45.7691 16.5553 45.9553C16.117 46.3274 15.6343 46.6444 15.1179 46.8941C13.2246 47.8087 10.9996 47.6815 9.57053 46.2564C8.41993 45.1086 7.93506 43.2935 8.51031 41.9045C8.59811 41.6925 8.58403 41.452 8.47209 41.2517C8.36016 41.0514 8.16268 40.9133 7.93611 40.877C6.88977 40.7093 5.92908 40.1369 5.28987 39.2703C5.27997 39.2539 5.26939 39.2379 5.25814 39.2221C4.53258 38.2066 4.35191 36.9406 4.79356 35.7951L4.79363 35.7949C5.24683 34.6186 6.22383 33.6783 7.41566 33.3301C8.49372 33.0151 9.83768 33.1458 10.9808 33.5321L10.9815 33.5324C11.6914 33.7715 12.3226 34.1447 12.7415 34.6352C12.9008 34.8217 13.1412 34.9185 13.3852 34.8945C13.6293 34.8705 13.8462 34.7287 13.9661 34.5148C14.7358 33.1411 16.2328 32.1973 17.8183 32.15L17.8185 32.15C18.719 32.123 19.63 32.4107 20.4075 32.9304C20.5782 33.0445 20.7883 33.0836 20.9887 33.0386C21.189 32.9935 21.3622 32.8683 21.4677 32.6921Z" stroke="#BDBCBC" stroke-width="1.5" stroke-linecap="round" stroke-linejoin="round"/>
<g clip-path="url(#clip0_115_233)">
<path d="M86.9036 184.618C87.3681 184.678 87.8087 184.949 88.0529 185.362C88.1777 185.565 88.2566 185.798 88.2787 186.037C88.3044 186.277 88.2566 186.521 88.1612 186.738C88.1391 186.793 88.1134 186.846 88.0804 186.896C88.0473 186.945 88.0235 186.999 87.9831 187.042C87.9078 187.132 87.8325 187.221 87.7518 187.303C87.592 187.471 87.4323 187.638 87.2726 187.807C86.9568 188.15 86.641 188.496 86.3344 188.852C85.7157 189.562 85.1301 190.31 84.5591 191.07C83.9973 191.837 83.4575 192.619 82.9527 193.416C81.9466 195.013 81.0617 196.654 80.3365 198.268C80.1547 198.671 79.9766 199.069 79.8151 199.469C79.6462 199.863 79.4975 200.26 79.3451 200.647C79.268 200.847 79.2056 201.022 79.1009 201.182C79.0018 201.341 78.8751 201.478 78.7319 201.585C78.4436 201.794 78.0746 201.853 77.7497 201.758C77.4945 201.688 77.2558 201.539 77.0814 201.34C76.9933 201.239 76.9235 201.126 76.8794 201.003C76.8391 200.887 76.8189 200.736 76.7876 200.59L76.7032 200.152L76.6004 199.72C76.5361 199.431 76.4498 199.147 76.3691 198.863C76.0349 197.729 75.5613 196.64 74.9811 195.611C74.4028 194.581 73.696 193.622 72.8771 192.76C72.4732 192.324 72.0271 191.926 71.57 191.542C71.335 191.357 71.0945 191.182 70.8595 190.988C70.6318 190.788 70.4445 190.527 70.3491 190.223C70.2554 189.933 70.261 189.595 70.3748 189.315C70.3785 189.301 70.3876 189.288 70.3858 189.275L70.3766 189.231C70.3711 189.201 70.3638 189.157 70.3583 189.119C70.3491 189.041 70.3472 188.963 70.3491 188.885C70.3564 188.729 70.3876 188.571 70.4464 188.426C70.5033 188.279 70.5822 188.144 70.6795 188.022L70.9641 187.678C71.155 187.452 71.3405 187.221 71.5259 186.987C72.2621 186.055 72.9598 185.086 73.5968 184.073C74.8709 182.052 75.9303 179.875 76.6665 177.608C76.7766 177.279 76.8611 176.932 77.0116 176.637C77.1677 176.342 77.4339 176.118 77.7423 176.03C78.0489 175.941 78.3867 175.979 78.6731 176.12C78.9614 176.259 79.1982 176.502 79.3322 176.797C79.3653 176.871 79.3855 176.949 79.413 177.026C79.4369 177.102 79.4424 177.185 79.4571 177.265C79.4828 177.427 79.5011 177.602 79.5232 177.77L79.5562 178.023C79.5709 178.107 79.5929 178.188 79.6095 178.272L79.7233 178.769C79.8316 179.089 79.9161 179.42 80.0611 179.724C80.1309 179.878 80.1859 180.038 80.2667 180.187L80.5017 180.632C80.8414 181.209 81.2214 181.763 81.6822 182.24L81.8493 182.425C81.9062 182.486 81.9686 182.539 82.0292 182.596L82.3927 182.933L82.7819 183.238C82.848 183.287 82.9104 183.34 82.9784 183.388L83.184 183.523C83.7238 183.9 84.3259 184.176 84.9391 184.399L85.4073 184.541C85.5633 184.591 85.7267 184.61 85.8846 184.646C86.2022 184.724 86.5309 184.732 86.854 184.766" stroke="#BDBCBC" stroke-width="1.5" stroke-miterlimit="10" stroke-linecap="round"/>
<path d="M98.5029 172.932C98.3212 172.764 98.1982 172.536 98.1486 172.3C98.0954 172.064 98.1027 171.82 98.1504 171.588C98.1963 171.358 98.2991 171.129 98.4295 170.95C98.5121 170.747 98.6186 170.537 98.7141 170.33C99.0978 169.496 99.4888 168.649 99.8817 167.797C100.66 166.088 101.435 164.348 102.186 162.635C102.56 161.777 102.931 160.928 103.295 160.092C103.476 159.674 103.655 159.259 103.833 158.849C103.879 158.743 103.915 158.657 103.972 158.575C104.029 158.495 104.091 158.421 104.169 158.364C104.319 158.244 104.505 158.172 104.695 158.149C105.079 158.096 105.487 158.21 105.788 158.442C105.94 158.558 106.06 158.709 106.135 158.876C106.206 159.047 106.23 159.23 106.206 159.419C106.19 159.626 106.175 159.832 106.159 160.035C106.151 160.136 106.144 160.239 106.135 160.34C106.135 160.441 106.135 160.541 106.135 160.64C106.135 160.84 106.135 161.038 106.137 161.232C106.148 161.426 106.168 161.619 106.183 161.809C106.396 164.173 107.339 166.424 108.843 168.198C109.594 169.085 110.486 169.852 111.483 170.455L111.861 170.674L112.05 170.783L112.248 170.876C112.511 171.004 112.783 171.114 113.04 171.255C113.286 171.419 113.455 171.695 113.528 171.991C113.598 172.29 113.583 172.612 113.491 172.911C113.405 173.2 113.223 173.466 112.966 173.632C112.715 173.788 112.465 173.923 112.215 174.07C111.975 174.232 111.727 174.38 111.492 174.549L111.141 174.806L110.965 174.934L110.796 175.073C109.891 175.802 109.069 176.649 108.365 177.593C107.659 178.535 107.084 179.585 106.664 180.699L106.511 181.117C106.46 181.256 106.425 181.401 106.381 181.544L106.256 181.972L106.159 182.408C106.087 182.697 106.047 182.992 106.003 183.285C105.979 183.432 105.962 183.58 105.935 183.719C105.907 183.86 105.863 183.999 105.803 184.127C105.667 184.431 105.432 184.688 105.134 184.812C104.839 184.937 104.497 184.939 104.202 184.823C103.904 184.709 103.644 184.49 103.484 184.21C103.403 184.071 103.35 183.917 103.328 183.759C103.315 183.679 103.319 183.601 103.32 183.519L103.331 183.266L103.352 182.76L103.342 182.256C103.346 181.919 103.302 181.586 103.282 181.251C103.201 180.586 103.098 179.924 102.915 179.283C102.579 177.994 102.017 176.778 101.294 175.682C100.568 174.586 99.6485 173.628 98.6131 172.836" stroke="#BDBCBC" stroke-width="1.5" stroke-miterlimit="10" stroke-linecap="round"/>
<path d="M90.2526 205.393C90.1902 205.308 90.1351 205.216 90.0911 205.119C90.0415 205.024 90.0158 204.916 89.9791 204.832C89.902 204.63 89.8689 204.409 89.8891 204.196C89.9093 203.981 89.9791 203.776 90.0819 203.593C90.1865 203.414 90.2985 203.246 90.4068 203.071C90.8548 202.384 91.356 201.724 91.8756 201.073C92.9129 199.771 94.0383 198.504 94.9526 197.093C95.0646 196.916 95.1802 196.741 95.2849 196.56L95.4446 196.29C95.4703 196.243 95.4978 196.208 95.5235 196.168C95.5511 196.13 95.5713 196.09 95.608 196.06C95.8558 195.784 96.2322 195.645 96.5976 195.637C96.7812 195.633 96.9629 195.67 97.13 195.731C97.297 195.797 97.4402 195.906 97.5541 196.037C97.6624 196.174 97.7285 196.342 97.7579 196.517C97.7909 196.715 97.824 196.911 97.8552 197.105C98.002 197.885 98.2297 198.627 98.5124 199.312C98.7933 200 99.1348 200.63 99.5148 201.187C100.095 202.065 100.811 202.837 101.628 203.467C101.731 203.545 101.83 203.627 101.936 203.701L102.258 203.915C102.467 204.065 102.7 204.175 102.922 204.305C103.148 204.425 103.389 204.525 103.614 204.636C103.835 204.733 104.035 204.885 104.191 205.076C104.505 205.45 104.654 206.004 104.464 206.476C104.285 206.965 103.77 207.184 103.356 207.495C102.507 208.105 101.731 208.844 101.059 209.689C99.759 211.322 98.7988 213.267 98.3509 215.357C98.2921 215.618 98.2572 215.882 98.2077 216.145C98.1636 216.407 98.1471 216.676 98.114 216.94C98.0865 217.207 98.0865 217.473 98.0718 217.742C98.0645 218.008 98.0498 218.276 97.9341 218.514C97.8276 218.75 97.6422 218.946 97.4201 219.062C97.1979 219.18 96.9427 219.23 96.6949 219.213C96.1973 219.184 95.7182 218.882 95.5089 218.415C95.3748 218.145 95.3712 217.837 95.3381 217.53L95.2941 217.072C95.2775 216.919 95.2555 216.767 95.2371 216.617L95.1784 216.164L95.1031 215.715C95.0774 215.564 95.0554 215.416 95.0278 215.267L94.9379 214.824C94.6937 213.642 94.3651 212.494 93.9502 211.385C93.1185 209.169 91.9362 207.104 90.3866 205.332" stroke="#BDBCBC" stroke-width="1.5" stroke-miterlimit="10" stroke-linecap="round"/>
</g>
<defs>
<clipPath id="clip0_115_233">
<rect width="45" height="63" fill="white" transform="translate(69.4324 157.131)"/>
</clipPath>
</defs>
</svg>
