<svg width="60" height="12" viewBox="0 0 60 12" fill="none" xmlns="http://www.w3.org/2000/svg">
<path d="M5.59869 1.17527C5.71818 0.806233 6.24029 0.806233 6.35979 1.17527L7.23204 3.86912C7.28547 4.03412 7.43915 4.1459 7.61259 4.1459H10.4382C10.8254 4.1459 10.9867 4.64104 10.6739 4.86912L8.3855 6.53748C8.24579 6.63933 8.18734 6.81942 8.2406 6.98391L9.11411 9.68164C9.23351 10.0504 8.81113 10.3564 8.49791 10.1281L6.21489 8.4636C6.07447 8.36122 5.88401 8.36122 5.74359 8.4636L3.46057 10.1281C3.14735 10.3564 2.72496 10.0504 2.84437 9.68163L3.71788 6.98391C3.77114 6.81942 3.71269 6.63933 3.57298 6.53748L1.28463 4.86912C0.971787 4.64104 1.13312 4.1459 1.52027 4.1459H4.34589C4.51933 4.1459 4.67301 4.03412 4.72644 3.86912L5.59869 1.17527Z" fill="#231F20"/>
<path d="M17.5572 1.17527C17.6767 0.806233 18.1988 0.806233 18.3183 1.17527L19.1905 3.86912C19.244 4.03412 19.3976 4.1459 19.5711 4.1459H22.3967C22.7839 4.1459 22.9452 4.64104 22.6323 4.86912L20.344 6.53748C20.2043 6.63933 20.1458 6.81942 20.1991 6.98391L21.0726 9.68164C21.192 10.0504 20.7696 10.3564 20.4564 10.1281L18.1734 8.4636C18.033 8.36122 17.8425 8.36122 17.7021 8.4636L15.4191 10.1281C15.1058 10.3564 14.6835 10.0504 14.8029 9.68163L15.6764 6.98391C15.7296 6.81942 15.6712 6.63933 15.5315 6.53748L13.2431 4.86912C12.9303 4.64104 13.0916 4.1459 13.4788 4.1459H16.3044C16.4778 4.1459 16.6315 4.03412 16.6849 3.86912L17.5572 1.17527Z" fill="#231F20"/>
<path d="M29.5157 1.17527C29.6352 0.806233 30.1573 0.806233 30.2768 1.17527L31.149 3.86912C31.2025 4.03412 31.3561 4.1459 31.5296 4.1459H34.3552C34.7424 4.1459 34.9037 4.64104 34.5908 4.86912L32.3025 6.53748C32.1628 6.63933 32.1043 6.81942 32.1576 6.98391L33.0311 9.68164C33.1505 10.0504 32.7281 10.3564 32.4149 10.1281L30.1319 8.4636C29.9915 8.36122 29.801 8.36122 29.6606 8.4636L27.3776 10.1281C27.0643 10.3564 26.642 10.0504 26.7614 9.68163L27.6349 6.98391C27.6881 6.81942 27.6297 6.63933 27.49 6.53748L25.2016 4.86912C24.8888 4.64104 25.0501 4.1459 25.4373 4.1459H28.2629C28.4363 4.1459 28.59 4.03412 28.6434 3.86912L29.5157 1.17527Z" fill="#231F20"/>
<path d="M41.4742 1.17527C41.5937 0.806233 42.1158 0.806233 42.2353 1.17527L43.1075 3.86912C43.161 4.03412 43.3146 4.1459 43.4881 4.1459H46.3137C46.7008 4.1459 46.8622 4.64104 46.5493 4.86912L44.261 6.53748C44.1213 6.63933 44.0628 6.81942 44.1161 6.98391L44.9896 9.68164C45.109 10.0504 44.6866 10.3564 44.3734 10.1281L42.0904 8.4636C41.95 8.36122 41.7595 8.36122 41.6191 8.4636L39.3361 10.1281C39.0228 10.3564 38.6005 10.0504 38.7199 9.68163L39.5934 6.98391C39.6466 6.81942 39.5882 6.63933 39.4485 6.53748L37.1601 4.86912C36.8473 4.64104 37.0086 4.1459 37.3958 4.1459H40.2214C40.3948 4.1459 40.5485 4.03412 40.6019 3.86912L41.4742 1.17527Z" fill="#231F20"/>
<path d="M53.4326 1.17527C53.552 0.806233 54.0742 0.806233 54.1936 1.17527L55.0659 3.86912C55.1193 4.03412 55.273 4.1459 55.4465 4.1459H58.2721C58.6592 4.1459 58.8206 4.64104 58.5077 4.86912L56.2194 6.53748C56.0797 6.63933 56.0212 6.81942 56.0745 6.98391L56.948 9.68164C57.0674 10.0504 56.645 10.3564 56.3318 10.1281L54.0487 8.4636C53.9083 8.36122 53.7179 8.36122 53.5775 8.4636L51.2944 10.1281C50.9812 10.3564 50.5588 10.0504 50.6782 9.68163L51.5517 6.98391C51.605 6.81942 51.5466 6.63933 51.4068 6.53748L49.1185 4.86912C48.8056 4.64104 48.967 4.1459 49.3541 4.1459H52.1798C52.3532 4.1459 52.5069 4.03412 52.5603 3.86912L53.4326 1.17527Z" fill="#231F20"/>
</svg>
